<svg xmlns="http://www.w3.org/2000/svg" viewBox="0 0 900 540">
<style>text{font-family:DejaVu Sans,Arial,sans-serif;fill:#172238}.title{font-size:24px;font-weight:700}.sub{font-size:13px;fill:#65748b}.label{font-size:14px}.value{font-size:15px;font-weight:700}</style>
<rect width="900" height="540" fill="#fbfcfe"/>
<text x="100" y="42" class="title">Vorteil des CV-X-IF-Pfads</text>
<text x="100" y="65" class="sub">Loose-Zyklen / Tight-Zyklen · derselbe 8-Byte-ReLU-Job</text>
<line x1="100" y1="343.2" x2="855" y2="343.2" stroke="#dce3ec"/>
<text x="88" y="347.2" text-anchor="end" class="sub">1.0×</text>
<line x1="100" y1="289.8" x2="855" y2="289.8" stroke="#dce3ec"/>
<text x="88" y="293.8" text-anchor="end" class="sub">1.5×</text>
<line x1="100" y1="236.4" x2="855" y2="236.4" stroke="#dce3ec"/>
<text x="88" y="240.4" text-anchor="end" class="sub">2.0×</text>
<line x1="100" y1="183.0" x2="855" y2="183.0" stroke="#dce3ec"/>
<text x="88" y="187.0" text-anchor="end" class="sub">2.5×</text>
<line x1="100" y1="129.6" x2="855" y2="129.6" stroke="#dce3ec"/>
<text x="88" y="133.6" text-anchor="end" class="sub">3.0×</text>
<polyline points="225.8,276.9 477.5,212.3 729.2,141.3" fill="none" stroke="#e05b3f" stroke-width="4" stroke-linejoin="round"/>
<circle cx="225.8" cy="276.9" r="8" fill="#e05b3f" stroke="white" stroke-width="3"/>
<text x="225.8" y="258.9" text-anchor="middle" class="value">1.62×</text>
<text x="225.8" y="478" text-anchor="middle" class="label">10 ns</text>
<circle cx="477.5" cy="212.3" r="8" fill="#e05b3f" stroke="white" stroke-width="3"/>
<text x="477.5" y="194.3" text-anchor="middle" class="value">2.23×</text>
<text x="477.5" y="478" text-anchor="middle" class="label">50 ns</text>
<circle cx="729.2" cy="141.3" r="8" fill="#e05b3f" stroke="white" stroke-width="3"/>
<text x="729.2" y="123.3" text-anchor="middle" class="value">2.89×</text>
<text x="729.2" y="478" text-anchor="middle" class="label">100 ns</text>
<text x="477.5" y="513" text-anchor="middle" class="sub">gem5 SimpleMemory latency</text>
</svg>